# xmcd CD database file
#
# Track frame offsets:
#	150
#	10166
#	23618
#	36633
#	51758
#	63307
#	77843
#	90245
#	102290
#	112250
#	126099
#	144433
#	157456
#	170831
#	181743
#
# Disc length: 2579 seconds
#
# Revision: 0
# Processed by: cddbd v1.5.1PL0 Copyright (c) Steve Scherf et al.
# Submitted via: CDex 1.51
#
DISCID=ca0a110f
DTITLE=Bud Powell - The Amazing Bud Powell, vol 2
DYEAR=1953
DGENRE=Jazz
TTITLE0=Autumn In New York (take 1)
TTITLE1=Autumn In New York (take 2)
TTITLE2=Autumn In New York
TTITLE3=Reets And I
TTITLE4=Reets And I (take 1)
TTITLE5=Reets And I (take 2)
TTITLE6=Sure Thing (alternate take)
TTITLE7=Sure Thing
TTITLE8=Collard Greens And Black-Eye Peas (take)
TTITLE9=Collard Greens And Black-Eye Peas
TTITLE10=Polka Dots And Moonbeams
TTITLE11=I Want To Be Happy
TTITLE12=Audrey
TTITLE13=Glass Enclosure
TTITLE14=I've Got You Under My Skin
EXTD=YEAR: 1953
EXTT0=
EXTT1=
EXTT2=
EXTT3=
EXTT4=
EXTT5=
EXTT6=
EXTT7=
EXTT8=
EXTT9=
EXTT10=
EXTT11=
EXTT12=
EXTT13=
EXTT14=
PLAYORDER=
